<mxfile host="app.diagrams.net" agent="Mozilla/5.0 (Windows NT 10.0; Win64; x64) AppleWebKit/537.36 (KHTML, like Gecko) Chrome/140.0.0.0 Safari/537.36" version="28.2.0">
  <diagram name="Page-1" id="7jJttS1z0E4L5cpXZhaQ">
    <mxGraphModel dx="872" dy="473" grid="1" gridSize="10" guides="1" tooltips="1" connect="1" arrows="1" fold="1" page="1" pageScale="1" pageWidth="850" pageHeight="1100" math="0" shadow="0">
      <root>
        <mxCell id="0" />
        <mxCell id="1" parent="0" />
        <mxCell id="b0Mw3q8XK0vuneF3ZkmG-11" value="start" style="ellipse;whiteSpace=wrap;html=1;fillColor=#e1d5e7;strokeColor=#9673a6;" parent="1" vertex="1">
          <mxGeometry x="240" y="160" width="120" height="80" as="geometry" />
        </mxCell>
        <mxCell id="b0Mw3q8XK0vuneF3ZkmG-15" value="" style="edgeStyle=orthogonalEdgeStyle;rounded=0;orthogonalLoop=1;jettySize=auto;html=1;" parent="1" target="b0Mw3q8XK0vuneF3ZkmG-14" edge="1">
          <mxGeometry relative="1" as="geometry">
            <mxPoint x="300" y="250" as="sourcePoint" />
          </mxGeometry>
        </mxCell>
        <mxCell id="b0Mw3q8XK0vuneF3ZkmG-17" value="" style="edgeStyle=orthogonalEdgeStyle;rounded=0;orthogonalLoop=1;jettySize=auto;html=1;" parent="1" source="b0Mw3q8XK0vuneF3ZkmG-14" edge="1">
          <mxGeometry relative="1" as="geometry">
            <mxPoint x="300" y="400" as="targetPoint" />
          </mxGeometry>
        </mxCell>
        <mxCell id="b0Mw3q8XK0vuneF3ZkmG-14" value="select menu" style="shape=parallelogram;perimeter=parallelogramPerimeter;whiteSpace=wrap;html=1;fixedSize=1;fillColor=#e1d5e7;strokeColor=#9673a6;" parent="1" vertex="1">
          <mxGeometry x="240" y="290" width="120" height="60" as="geometry" />
        </mxCell>
        <mxCell id="bpc0uVbkQ8YgJavXPvYP-3" value="" style="edgeStyle=orthogonalEdgeStyle;rounded=0;orthogonalLoop=1;jettySize=auto;html=1;" edge="1" parent="1" source="bpc0uVbkQ8YgJavXPvYP-1" target="bpc0uVbkQ8YgJavXPvYP-2">
          <mxGeometry relative="1" as="geometry" />
        </mxCell>
        <mxCell id="bpc0uVbkQ8YgJavXPvYP-1" value="Display menu" style="rounded=0;whiteSpace=wrap;html=1;" vertex="1" parent="1">
          <mxGeometry x="240" y="400" width="120" height="60" as="geometry" />
        </mxCell>
        <mxCell id="bpc0uVbkQ8YgJavXPvYP-5" value="" style="edgeStyle=orthogonalEdgeStyle;rounded=0;orthogonalLoop=1;jettySize=auto;html=1;" edge="1" parent="1" source="bpc0uVbkQ8YgJavXPvYP-2" target="bpc0uVbkQ8YgJavXPvYP-4">
          <mxGeometry relative="1" as="geometry" />
        </mxCell>
        <mxCell id="bpc0uVbkQ8YgJavXPvYP-2" value="select food" style="rhombus;whiteSpace=wrap;html=1;rounded=0;" vertex="1" parent="1">
          <mxGeometry x="260" y="530" width="80" height="80" as="geometry" />
        </mxCell>
        <mxCell id="bpc0uVbkQ8YgJavXPvYP-7" value="" style="edgeStyle=orthogonalEdgeStyle;rounded=0;orthogonalLoop=1;jettySize=auto;html=1;" edge="1" parent="1" source="bpc0uVbkQ8YgJavXPvYP-4" target="bpc0uVbkQ8YgJavXPvYP-6">
          <mxGeometry relative="1" as="geometry" />
        </mxCell>
        <mxCell id="bpc0uVbkQ8YgJavXPvYP-4" value="confirm order" style="rhombus;whiteSpace=wrap;html=1;rounded=0;" vertex="1" parent="1">
          <mxGeometry x="260" y="670" width="80" height="80" as="geometry" />
        </mxCell>
        <mxCell id="bpc0uVbkQ8YgJavXPvYP-9" value="" style="edgeStyle=orthogonalEdgeStyle;rounded=0;orthogonalLoop=1;jettySize=auto;html=1;" edge="1" parent="1" source="bpc0uVbkQ8YgJavXPvYP-6" target="bpc0uVbkQ8YgJavXPvYP-8">
          <mxGeometry relative="1" as="geometry" />
        </mxCell>
        <mxCell id="bpc0uVbkQ8YgJavXPvYP-6" value="Display order number" style="whiteSpace=wrap;html=1;rounded=0;" vertex="1" parent="1">
          <mxGeometry x="240" y="800" width="120" height="60" as="geometry" />
        </mxCell>
        <mxCell id="bpc0uVbkQ8YgJavXPvYP-8" value="end" style="ellipse;whiteSpace=wrap;html=1;rounded=0;" vertex="1" parent="1">
          <mxGeometry x="260" y="930" width="80" height="80" as="geometry" />
        </mxCell>
      </root>
    </mxGraphModel>
  </diagram>
</mxfile>
